<?xml version="1.0" standalone="no"?>
<!DOCTYPE svg PUBLIC "-//W3C//DTD SVG 20010904//EN"
 "http://www.w3.org/TR/2001/REC-SVG-20010904/DTD/svg10.dtd">
<svg version="1.0" xmlns="http://www.w3.org/2000/svg"
 width="255.000000pt" height="255.000000pt" viewBox="0 0 255.000000 255.000000"
 preserveAspectRatio="xMidYMid meet">
<metadata>
Created by potrace 1.11, written by Peter Selinger 2001-2013
</metadata>
<g transform="translate(0.000000,255.000000) scale(0.100000,-0.100000)"
fill="#000000" stroke="none">
<path d="M1065 2494 c-113 -20 -257 -67 -350 -114 -240 -124 -448 -344 -546
-579 -48 -116 -86 -282 -89 -387 0 -12 -10 -25 -25 -32 -46 -21 -52 -52 -51
-249 l1 -181 27 -25 c21 -20 31 -44 44 -104 22 -110 107 -279 173 -344 9 -9
30 -31 47 -50 102 -112 251 -207 404 -259 36 -12 72 -28 81 -36 24 -21 240
-92 269 -87 86 13 118 131 48 177 -28 19 -267 32 -296 17 -32 -17 -174 40
-292 117 -59 39 -190 164 -232 223 -45 62 -97 173 -114 246 l-17 71 29 27 29
27 3 182 c3 178 3 182 -21 217 -16 23 -23 47 -21 65 13 123 19 159 41 234 113
392 476 698 901 760 105 16 334 8 422 -14 332 -81 583 -269 743 -557 55 -100
104 -269 113 -391 4 -58 2 -71 -15 -89 -25 -28 -27 -38 -26 -226 1 -110 5
-169 13 -185 26 -48 86 -67 134 -42 55 28 58 42 58 242 l0 184 -37 36 c-29 29
-38 46 -40 77 -4 69 -13 119 -37 211 -110 421 -502 765 -956 839 -116 18 -307
18 -415 -1z"/>
<path d="M1265 2324 c-5 -1 -27 -5 -49 -9 -28 -5 -51 -19 -85 -53 -37 -38 -61
-52 -121 -71 -253 -79 -457 -253 -573 -487 -186 -375 -109 -818 192 -1111 273
-265 681 -342 1034 -193 77 32 177 90 177 102 0 4 6 8 14 8 8 0 52 37 99 82
109 107 172 203 238 363 48 116 66 309 45 470 -11 79 -57 220 -99 298 -125
235 -350 415 -601 480 -66 17 -88 27 -98 45 -22 41 -130 89 -173 76z"/>
</g>
</svg>
